HIERARCHY
ROOT Hips
{
	OFFSET 0.00000 0.00000 0.00000
	CHANNELS 6 Xposition Yposition Zposition Zrotation Yrotation Xrotation 
	JOINT RightUpLegDummy
	{
		OFFSET 0 0 0
		CHANNELS 3 Zrotation Yrotation Xrotation
		JOINT RightUpLeg
		{
			OFFSET -3.52197 -3.41223 0.04002
			CHANNELS 3 Zrotation Yrotation Xrotation
			JOINT RightLeg
			{
				OFFSET 0.00006 -17.42390 1.60435
				CHANNELS 3 Zrotation Yrotation Xrotation
				JOINT RightFoot
				{
					OFFSET 0.06154 -16.50078 -1.63900
					CHANNELS 3 Zrotation Yrotation Xrotation
					JOINT RightToes
					{
						OFFSET 0.00298 -1.73825 3.34613
						CHANNELS 3 Zrotation Yrotation Xrotation
						End Site
						{
							OFFSET 0.00000 0.00000 0.00000
						}
					}
				}
			}
		}
	}
	JOINT SpineDummy
	{
		OFFSET 0 0 0
		CHANNELS 3 Zrotation Yrotation Xrotation
		JOINT Spine
		{
			OFFSET 0.00000 4.68130 0.00000
			CHANNELS 3 Zrotation Yrotation Xrotation
			JOINT Spine1
			{
				OFFSET -0.00000 10.10138 0.05002
				CHANNELS 3 Zrotation Yrotation Xrotation
				JOINT HEadDummy
				{
					OFFSET 0 0 0
					CHANNELS 3 Zrotation Yrotation Xrotation
					JOINT Head
					{
						OFFSET -0.00000 3.43865 0.00438
						CHANNELS 3 Zrotation Yrotation Xrotation
						End Site
						{
							OFFSET 0.00000 0.00000 0.00000
						}
					}
				}
				JOINT LeftShoulder1Dummy
				{
					OFFSET 0 0 0
					CHANNELS 3 Zrotation Yrotation Xrotation
					JOINT LeftShoulder1
					{
						OFFSET 3.53937 -0.14262 -0.08662
						CHANNELS 3 Zrotation Yrotation Xrotation
						JOINT LeftArm
						{
							OFFSET 4.04833 -0.00133 0.12681
							CHANNELS 3 Zrotation Yrotation Xrotation
							JOINT LeftForeArm
							{
								OFFSET 10.33880 -0.01036 -0.55515
								CHANNELS 3 Zrotation Yrotation Xrotation
								JOINT LeftHand
								{
									OFFSET 8.69677 0.07543 0.40060
									CHANNELS 3 Zrotation Yrotation Xrotation
									End Site
									{
										OFFSET 0.00000 0.00000 0.00000
									}
								}
							}
						}
					}
				}
				JOINT RightShoulderDummy
				{
					OFFSET 0 0 0
					CHANNELS 3 Zrotation Yrotation Xrotation
					JOINT RightShoulder
					{
						OFFSET -3.53937 -0.14262 -0.08660
						CHANNELS 3 Zrotation Yrotation Xrotation
						JOINT RightArm
						{
							OFFSET -4.04833 -0.00133 0.12683
							CHANNELS 3 Zrotation Yrotation Xrotation
							JOINT RightForeArm
							{
								OFFSET -10.37987 -0.01039 -0.55511
								CHANNELS 3 Zrotation Yrotation Xrotation
								JOINT RightHand
								{
									OFFSET -8.67398 0.07538 0.40058
									CHANNELS 3 Zrotation Yrotation Xrotation
									End Site
									{
										OFFSET 0.00000 0.00000 0.00000
									}
								}
							}
						}
					}
				}
			}
		}
	}
	JOINT LeftUpLegDummy
	{
		OFFSET 0 0 0
		CHANNELS 3 Zrotation Yrotation Xrotation
		JOINT LeftUpLeg
		{
			OFFSET 3.52197 -3.41223 0.04002
			CHANNELS 3 Zrotation Yrotation Xrotation
			JOINT LeftLeg
			{
				OFFSET -0.00012 -17.42399 1.60337
				CHANNELS 3 Zrotation Yrotation Xrotation
				JOINT LeftFoot
				{
					OFFSET -0.09972 -16.50070 -1.63802
					CHANNELS 3 Zrotation Yrotation Xrotation
					JOINT LeftToes
					{
						OFFSET -0.01575 -1.73823 3.34611
						CHANNELS 3 Zrotation Yrotation Xrotation
						End Site
						{
							OFFSET 0.00000 0.00000 0.00000
						}
					}
				}
			}
		}
	}
}
MOTION
Frames: 11
Frame Time: 0.033333
-21.7984 38.6508 29.1555 167.9000 -55.4677 -174.2970 0.0000 0.0000 0.0000 9.1335 -14.5292 -13.0741 -7.6937 -32.0536 21.9596 -16.5679 -0.9074 -17.1299 -0.0000 0.0000 0.0000 0.0000 0.0000 0.0000 3.8987 -1.6887 0.8026 1.5931 -1.4563 9.4428 0.0000 0.0000 0.0000 7.1795 -28.2167 4.7698 0.0000 0.0000 0.0000 -44.7626 -9.9138 6.8968 -32.8393 19.2476 -20.0052 0.5354 -30.8965 20.3193 5.3221 0.0205 -0.2441 0.0000 0.0000 0.0000 41.2704 9.1209 6.0091 34.5583 -0.2386 3.4421 2.1711 19.0469 1.5115 -14.6284 1.2658 -0.8326 0.0000 0.0000 0.0000 2.6775 19.5621 -5.9336 2.9534 0.8772 62.0640 -10.9558 2.0042 9.7473 -0.0000 0.0000 -0.0000
-22.7537 38.8355 28.5416 168.6250 -49.8667 -175.2270 0.0000 0.0000 0.0000 8.6177 -11.7784 -10.4092 -6.7683 -29.6037 21.3721 -16.2376 -0.9730 -17.6948 -0.0000 0.0000 0.0000 0.0000 0.0000 0.0000 3.9585 -1.3877 1.3988 1.1248 -0.9282 9.6316 0.0000 0.0000 0.0000 8.1800 -26.3965 4.1334 0.0000 0.0000 0.0000 -45.1130 -10.2033 7.0979 -33.6005 19.2113 -12.6464 0.3030 -24.0339 18.7844 5.3221 0.0205 -0.2441 0.0000 0.0000 0.0000 41.7677 9.1940 6.1115 35.0483 1.2304 6.8857 0.7949 23.9761 -4.3697 -15.8617 1.0652 -0.8787 0.0000 0.0000 0.0000 1.7988 15.4281 -11.4052 7.5577 1.9976 67.7286 -5.7149 0.8995 7.3014 -0.0000 0.0000 -0.0000
-23.6996 39.1089 27.8456 168.6170 -42.1104 -175.4130 0.0000 0.0000 0.0000 7.7342 -9.3430 -7.4910 -5.2460 -24.9727 19.6629 -15.9052 -0.9535 -17.6921 -0.0000 0.0000 0.0000 0.0000 0.0000 0.0000 4.4345 -0.2620 1.5793 -0.8869 0.7540 9.5170 0.0000 0.0000 0.0000 8.2855 -24.2215 4.2769 0.0000 0.0000 0.0000 -45.3878 -10.2596 7.1688 -34.4844 19.0030 -6.9617 -0.3551 -19.2854 21.9338 5.3221 0.0205 -0.2441 0.0000 0.0000 0.0000 42.2561 9.3714 6.2642 35.3173 2.8851 9.2583 0.8035 27.2492 -4.1806 -16.6613 1.5567 -0.9914 0.0000 0.0000 0.0000 0.9083 13.1253 -15.4891 12.5817 3.1706 69.3459 -1.6050 0.1892 3.8887 -0.0000 0.0000 -0.0000
-24.5983 39.3272 27.1149 168.4740 -33.7170 -175.4420 0.0000 0.0000 0.0000 6.4930 -7.2702 -4.7943 -3.6422 -19.2067 18.0965 -15.8713 -1.0199 -18.1668 -0.0000 0.0000 0.0000 0.0000 0.0000 0.0000 4.9936 0.9715 1.9780 -3.0330 2.5743 8.8025 0.0000 0.0000 0.0000 7.4694 -21.5607 4.9294 0.0000 0.0000 0.0000 -45.7488 -10.3157 7.2534 -36.1853 19.2321 -6.2997 -1.1852 -16.9064 27.4189 5.3221 0.0205 -0.2441 0.0000 0.0000 0.0000 42.4083 9.5884 6.3909 35.7819 4.8569 12.8344 0.6574 28.9062 -0.9682 -16.2360 1.9316 -1.0176 0.0000 0.0000 0.0000 0.1927 11.1564 -18.8694 14.2827 3.9834 68.0503 1.2887 -0.1451 0.8765 -0.0000 0.0000 -0.0000
-25.4675 39.4968 26.3542 168.4640 -25.8584 -175.6350 0.0000 0.0000 0.0000 5.0178 -6.0295 -2.3773 -2.0924 -12.9784 17.0028 -15.8734 -1.1050 -18.7591 -0.0000 0.0000 0.0000 0.0000 0.0000 0.0000 5.8030 1.9234 2.6756 -5.0906 4.0410 7.9503 0.0000 0.0000 0.0000 6.3267 -18.6405 5.2256 0.0000 0.0000 0.0000 -46.3556 -10.4945 7.4415 -38.1646 19.4219 -7.1422 -1.4726 -15.8896 28.9956 5.3221 0.0205 -0.2441 0.0000 0.0000 0.0000 42.5013 9.7992 6.5070 36.1460 6.6523 16.1503 0.4979 30.3717 2.1107 -15.3708 1.6870 -0.9305 0.0000 0.0000 0.0000 -0.2465 8.9890 -21.5546 12.3454 4.2534 64.3631 2.2468 -0.1756 -2.0069 -0.0000 0.0000 -0.0000
-26.2949 39.6623 25.5340 168.5450 -18.7328 -176.1220 0.0000 0.0000 0.0000 3.4286 -5.3250 0.0860 -0.8797 -6.9373 16.0562 -15.5658 -1.1023 -18.8834 -0.0000 0.0000 0.0000 0.0000 0.0000 0.0000 6.8592 2.6392 3.6920 -7.2980 5.2618 7.2837 0.0000 0.0000 0.0000 5.2259 -15.8318 4.7322 0.0000 0.0000 0.0000 -46.9280 -10.7069 7.6449 -39.6132 19.0281 -7.6558 -1.6932 -15.3550 27.0461 5.3221 0.0205 -0.2441 0.0000 0.0000 0.0000 42.8103 10.0223 6.6611 36.0954 7.8232 18.5598 0.4804 32.1255 2.5458 -14.9841 1.1305 -0.8364 0.0000 0.0000 0.0000 -0.3859 7.1624 -23.3492 8.5730 3.8949 58.3283 1.0888 -0.0421 -4.3178 -0.0000 0.0000 -0.0000
-27.0618 39.7882 24.6400 168.5400 -12.7868 -176.7330 0.0000 0.0000 0.0000 1.6983 -4.9901 2.7017 -0.0435 -1.6517 15.0147 -15.1797 -1.0972 -19.0353 -0.0000 0.0000 0.0000 0.0000 0.0000 0.0000 7.4875 3.0479 4.8468 -9.0978 6.0195 6.6762 0.0000 0.0000 0.0000 4.1039 -13.3502 3.7332 0.0000 0.0000 0.0000 -47.2737 -10.9073 7.8085 -40.3396 18.2062 -7.7719 -1.7759 -15.2991 24.9791 5.3221 0.0205 -0.2441 0.0000 0.0000 0.0000 43.1032 10.2322 6.8076 35.8984 8.3611 20.0149 0.5633 33.5298 1.1953 -15.0975 0.8107 -0.8026 0.0000 0.0000 0.0000 -0.3357 5.3467 -24.4845 5.2873 3.2586 50.3165 -0.8229 0.0764 -5.4637 -0.0000 0.0000 -0.0000
-27.7761 39.8084 23.6696 168.5490 -8.6383 -177.0680 0.0000 0.0000 0.0000 0.0042 -5.1717 5.0348 0.6401 2.5598 14.1261 -15.0138 -1.1740 -19.6819 -0.0000 0.0000 0.0000 0.0000 0.0000 0.0000 7.3813 3.0679 5.5263 -9.7541 6.0378 6.1618 0.0000 0.0000 0.0000 2.9341 -11.2964 2.6265 0.0000 0.0000 0.0000 -47.5095 -11.1264 7.9658 -40.3587 17.2484 -7.5049 -1.5422 -15.9974 24.4328 5.3221 0.0205 -0.2441 0.0000 0.0000 0.0000 43.0764 10.3262 6.8502 35.8508 8.3376 20.4735 0.6375 34.3657 0.0039 -15.1422 0.7469 -0.7969 0.0000 0.0000 0.0000 -0.1146 2.8959 -25.4764 3.3436 2.7925 40.9011 -1.6364 0.1134 -5.9024 -0.0000 0.0000 -0.0000
-28.4388 39.7460 22.6171 168.7370 -5.9314 -176.9780 0.0000 0.0000 0.0000 -1.3656 -5.4960 6.9253 1.1478 5.5829 13.4169 -14.8817 -1.2485 -20.3060 -0.0000 0.0000 0.0000 0.0000 0.0000 0.0000 6.8728 2.9294 5.4774 -9.5293 5.6464 5.9499 0.0000 0.0000 0.0000 1.9262 -9.6749 1.5092 0.0000 0.0000 0.0000 -47.6316 -11.3160 8.0891 -39.5962 16.1475 -6.4287 -1.1595 -17.2485 24.4365 5.3221 0.0205 -0.2441 0.0000 0.0000 0.0000 42.8573 10.2731 6.7912 35.7329 7.6869 20.0420 0.7046 35.0040 -1.0737 -15.0060 0.6557 -0.7781 0.0000 0.0000 0.0000 0.0458 0.9558 -26.4041 1.7629 1.8172 30.2974 -1.7115 0.1170 -5.8270 -0.0000 0.0000 -0.0000
-29.0395 39.6606 21.4926 168.9970 -3.7855 -176.7800 0.0000 0.0000 0.0000 -2.5102 -5.5862 8.8407 1.3235 7.6744 12.4999 -14.4142 -1.2464 -20.5743 -0.0000 0.0000 0.0000 0.0000 0.0000 0.0000 6.1758 2.8496 5.2057 -9.1931 5.3292 6.0181 0.0000 0.0000 0.0000 1.2637 -8.3278 0.3092 0.0000 0.0000 0.0000 -47.4847 -11.3949 8.1074 -38.1916 14.9255 -4.9460 -0.7543 -18.6237 23.9713 5.3221 0.0205 -0.2441 0.0000 0.0000 0.0000 42.7824 10.1929 6.7407 35.2639 6.4770 19.1797 0.8216 35.3008 -3.0646 -15.0061 0.5619 -0.7663 0.0000 0.0000 0.0000 -0.5394 1.7008 -26.8546 0.1831 0.0998 18.9328 -3.6962 0.2513 -4.6164 -0.0000 0.0000 -0.0000
-29.6168 39.5019 20.2830 169.3270 -2.0133 -176.8330 0.0000 0.0000 0.0000 -3.6466 -5.6555 11.0570 1.4331 9.2644 11.7914 -13.4809 -1.2374 -21.1307 -0.0000 0.0000 0.0000 0.0000 0.0000 0.0000 5.5340 2.7281 5.1256 -8.9591 5.0803 6.1821 0.0000 0.0000 0.0000 0.9566 -7.1237 -0.9746 0.0000 0.0000 0.0000 -47.0986 -11.3971 8.0438 -36.5041 13.8114 -4.4230 -0.2880 -19.9692 23.3351 5.3221 0.0205 -0.2441 0.0000 0.0000 0.0000 42.9191 10.2070 6.7679 34.5744 5.0472 18.3016 0.9602 34.4857 -5.6234 -15.1844 0.6497 -0.7868 0.0000 0.0000 0.0000 -0.8518 3.2342 -26.6301 -1.5462 2.3521 8.6308 -7.2832 0.5464 -3.0019 -0.0000 0.0000 -0.0000
